<?xml version="1.0" encoding="iso-8859-1"?>
<!-- Generator: Adobe Illustrator 24.3.0, SVG Export Plug-In . SVG Version: 6.00 Build 0)  -->
<svg version="1.1" id="burgerMenu" xmlns="http://www.w3.org/2000/svg" xmlns:xlink="http://www.w3.org/1999/xlink" x="0px" y="0px"
	 viewBox="0 0 50 28" style="enable-background:new 0 0 50 28;" xml:space="preserve">
<path style="fill:#111111;" d="M39,2H1C0.448,2,0,1.552,0,1v0c0-0.552,0.448-1,1-1h38c0.552,0,1,0.448,1,1v0C40,1.552,39.552,2,39,2
	z"/>
<path style="fill:#111111;" d="M29,15H1c-0.552,0-1-0.448-1-1v0c0-0.552,0.448-1,1-1h28c0.552,0,1,0.448,1,1v0
	C30,14.552,29.552,15,29,15z"/>
<path style="fill:#111111;" d="M49,28H1c-0.552,0-1-0.448-1-1v0c0-0.552,0.448-1,1-1h48c0.552,0,1,0.448,1,1v0
	C50,27.552,49.552,28,49,28z"/>
</svg>
