<svg width="30" height="30" viewBox="0 0 30 30" fill="none" xmlns="http://www.w3.org/2000/svg">
<g id="Icons/Up">
<rect id="Bg" y="30" width="30" height="30" transform="rotate(-90 0 30)" fill="white" fill-opacity="0.01"/>
<path id="Fill 1" fill-rule="evenodd" clip-rule="evenodd" d="M1.53359 20.847C1.15528 21.2253 1.15528 21.8379 1.53359 22.2163C1.91191 22.5946 2.52455 22.5946 2.90287 22.2163L14.9999 10.1192L27.0973 22.2163C27.4753 22.5946 28.0882 22.5946 28.4665 22.2163C28.6557 22.0271 28.75 21.7795 28.75 21.5316C28.75 21.2837 28.6557 21.0361 28.4665 20.847L15.6846 8.06501C15.503 7.88319 15.2566 7.78127 14.9999 7.78127C14.7436 7.78127 14.4968 7.88319 14.3153 8.06501L1.53359 20.847Z" fill="#111111"/>
</g>
</svg>
