<?xml version="1.0" encoding="UTF-8"?>
<svg width="700pt" height="700pt" version="1.1" viewBox="0 0 700 700" xmlns="http://www.w3.org/2000/svg" xmlns:xlink="http://www.w3.org/1999/xlink">
 <defs>
  <symbol id="o" overflow="visible">
   <path d="m35.531-2.125c-1.8359 0.94922-3.7461 1.6641-5.7344 2.1406-1.9805 0.48828-4.0469 0.73438-6.2031 0.73438-6.4375 0-11.543-1.7969-15.312-5.3906-3.7617-3.6016-5.6406-8.4883-5.6406-14.656 0-6.1758 1.8789-11.062 5.6406-14.656 3.7695-3.6016 8.875-5.4062 15.312-5.4062 2.1562 0 4.2227 0.24609 6.2031 0.73438 1.9883 0.48047 3.8984 1.1953 5.7344 2.1406v8c-1.8555-1.2578-3.6797-2.1797-5.4688-2.7656-1.793-0.59375-3.6836-0.89062-5.6719-0.89062-3.5547 0-6.3516 1.1406-8.3906 3.4219-2.0312 2.2812-3.0469 5.4219-3.0469 9.4219 0 3.9922 1.0156 7.125 3.0469 9.4062 2.0391 2.2812 4.8359 3.4219 8.3906 3.4219 1.9883 0 3.8789-0.28906 5.6719-0.875 1.7891-0.59375 3.6133-1.5195 5.4688-2.7812z"/>
  </symbol>
  <symbol id="b" overflow="visible">
   <path d="m26-21.109c-0.8125-0.375-1.6211-0.64844-2.4219-0.82812-0.80469-0.1875-1.6094-0.28125-2.4219-0.28125-2.3867 0-4.2266 0.76562-5.5156 2.2969-1.2812 1.5234-1.9219 3.7109-1.9219 6.5625v13.359h-9.2656v-29h9.2656v4.7656c1.1953-1.8945 2.5664-3.2812 4.1094-4.1562 1.5391-0.875 3.3906-1.3125 5.5469-1.3125 0.3125 0 0.64844 0.015625 1.0156 0.046875 0.36328 0.023438 0.89062 0.074219 1.5781 0.15625z"/>
  </symbol>
  <symbol id="a" overflow="visible">
   <path d="m33.406-14.578v2.6406h-21.672c0.21875 2.1797 1 3.8125 2.3438 4.9062 1.3516 1.0859 3.2383 1.625 5.6562 1.625 1.9453 0 3.9414-0.28516 5.9844-0.85938 2.0508-0.58203 4.1562-1.4609 6.3125-2.6406v7.1406c-2.1875 0.83594-4.3828 1.4609-6.5781 1.875-2.1875 0.42578-4.3828 0.64062-6.5781 0.64062-5.25 0-9.3281-1.332-12.234-4-2.9062-2.6641-4.3594-6.4062-4.3594-11.219 0-4.7266 1.4258-8.4453 4.2812-11.156 2.8516-2.7188 6.7852-4.0781 11.797-4.0781 4.5508 0 8.1953 1.375 10.938 4.125 2.7383 2.7422 4.1094 6.4062 4.1094 11zm-9.5312-3.0781c0-1.7578-0.51562-3.1758-1.5469-4.25-1.0234-1.082-2.3594-1.625-4.0156-1.625-1.8047 0-3.2656 0.50781-4.3906 1.5156-1.1172 1-1.8125 2.4531-2.0938 4.3594z"/>
  </symbol>
  <symbol id="h" overflow="visible">
   <path d="m17.453-13.047c-1.9375 0-3.3984 0.32812-4.375 0.98438-0.96875 0.65625-1.4531 1.6211-1.4531 2.8906 0 1.1797 0.39062 2.1016 1.1719 2.7656 0.78906 0.66797 1.8828 1 3.2812 1 1.75 0 3.2188-0.625 4.4062-1.875 1.1875-1.2578 1.7812-2.8281 1.7812-4.7031v-1.0625zm14.156-3.5v16.547h-9.3438v-4.2969c-1.2422 1.7617-2.6367 3.043-4.1875 3.8438-1.5547 0.80078-3.4453 1.2031-5.6719 1.2031-3.0117 0-5.4531-0.875-7.3281-2.625-1.8672-1.75-2.7969-4.0234-2.7969-6.8281 0-3.3945 1.1641-5.8828 3.5-7.4688 2.3438-1.5938 6.0195-2.3906 11.031-2.3906h5.4531v-0.73438c0-1.457-0.57812-2.5234-1.7344-3.2031-1.1562-0.6875-2.9609-1.0312-5.4062-1.0312-1.9922 0-3.8398 0.19922-5.5469 0.59375-1.7109 0.39844-3.2969 0.99219-4.7656 1.7812v-7.0625c1.9883-0.48828 3.9844-0.85938 5.9844-1.1094s4.0039-0.375 6.0156-0.375c5.2266 0 9 1.0312 11.312 3.0938 2.3203 2.0625 3.4844 5.418 3.4844 10.062z"/>
  </symbol>
  <symbol id="g" overflow="visible">
   <path d="m14.578-37.234v8.2344h9.5625v6.625h-9.5625v12.297c0 1.3555 0.26562 2.2734 0.79688 2.75 0.53906 0.46875 1.6016 0.70312 3.1875 0.70312h4.7656v6.625h-7.9531c-3.6562 0-6.25-0.75781-7.7812-2.2812-1.5234-1.5312-2.2812-4.1289-2.2812-7.7969v-12.297h-4.6094v-6.625h4.6094v-8.2344z"/>
  </symbol>
  <symbol id="c" overflow="visible">
   <path d="m24.188-24.75v-15.547h9.3125v40.297h-9.3125v-4.1875c-1.2812 1.7109-2.6953 2.9609-4.2344 3.75-1.5312 0.78906-3.3086 1.1875-5.3281 1.1875-3.5742 0-6.5117-1.4141-8.8125-4.25-2.293-2.8438-3.4375-6.5-3.4375-10.969 0-4.4766 1.1445-8.1328 3.4375-10.969 2.3008-2.8438 5.2383-4.2656 8.8125-4.2656 2.0078 0 3.7852 0.40234 5.3281 1.2031 1.5391 0.80469 2.9531 2.0547 4.2344 3.75zm-6.1094 18.766c1.9766 0 3.4883-0.72266 4.5312-2.1719 1.0508-1.4453 1.5781-3.5508 1.5781-6.3125 0-2.7695-0.52734-4.8789-1.5781-6.3281-1.043-1.4453-2.5547-2.1719-4.5312-2.1719-1.9688 0-3.4805 0.72656-4.5312 2.1719-1.043 1.4492-1.5625 3.5586-1.5625 6.3281 0 2.7617 0.51953 4.8672 1.5625 6.3125 1.0508 1.4492 2.5625 2.1719 4.5312 2.1719z"/>
  </symbol>
  <symbol id="f" overflow="visible">
   <path d="m19.891-5.9844c1.9766 0 3.4883-0.72266 4.5312-2.1719 1.0508-1.4453 1.5781-3.5508 1.5781-6.3125 0-2.7695-0.52734-4.8789-1.5781-6.3281-1.043-1.4453-2.5547-2.1719-4.5312-2.1719-1.9922 0-3.5156 0.73047-4.5781 2.1875-1.0625 1.4609-1.5938 3.5625-1.5938 6.3125 0 2.7422 0.53125 4.8398 1.5938 6.2969 1.0625 1.4609 2.5859 2.1875 4.5781 2.1875zm-6.1719-18.766c1.2812-1.6953 2.6953-2.9453 4.25-3.75 1.5508-0.80078 3.3359-1.2031 5.3594-1.2031 3.5703 0 6.5039 1.4219 8.7969 4.2656 2.3008 2.8359 3.4531 6.4922 3.4531 10.969 0 4.4688-1.1523 8.125-3.4531 10.969-2.293 2.8359-5.2266 4.25-8.7969 4.25-2.0234 0-3.8086-0.40234-5.3594-1.2031-1.5547-0.80078-2.9688-2.0469-4.25-3.7344v4.1875h-9.2656v-40.297h9.2656z"/>
  </symbol>
  <symbol id="e" overflow="visible">
   <path d="m0.64062-29h9.2812l7.7969 19.672 6.625-19.672h9.2656l-12.188 31.75c-1.2305 3.2266-2.6641 5.4844-4.2969 6.7656-1.625 1.2812-3.7773 1.9219-6.4531 1.9219h-5.3594v-6.0781h2.8906c1.5703 0 2.7188-0.25 3.4375-0.75s1.2734-1.3984 1.6719-2.6875l0.25-0.8125z"/>
  </symbol>
  <symbol id="d" overflow="visible">
   <path d="m28.328-7.0469h-15.594l-2.4531 7.0469h-10.016l14.312-38.656h11.891l14.312 38.656h-10.016zm-13.109-7.1719h10.594l-5.2812-15.375z"/>
  </symbol>
  <symbol id="n" overflow="visible">
   <path d="m33.609-17.656v17.656h-9.3281v-13.516c0-2.5-0.058594-4.2227-0.17188-5.1719-0.10547-0.95703-0.29688-1.6602-0.57812-2.1094-0.35547-0.60156-0.84375-1.0703-1.4688-1.4062-0.625-0.33203-1.3359-0.5-2.125-0.5-1.9375 0-3.4609 0.74609-4.5625 2.2344-1.1055 1.4922-1.6562 3.5586-1.6562 6.2031v14.266h-9.2656v-29h9.2656v4.25c1.4062-1.6953 2.8906-2.9453 4.4531-3.75 1.5703-0.80078 3.3047-1.2031 5.2031-1.2031 3.3516 0 5.8945 1.0312 7.625 3.0938 1.7383 2.0547 2.6094 5.0391 2.6094 8.9531z"/>
  </symbol>
  <symbol id="m" overflow="visible">
   <path d="m4.4531-29h9.2656v28.484c0 3.8828-0.93359 6.8477-2.7969 8.8906-1.8672 2.0391-4.5625 3.0625-8.0938 3.0625h-4.5938v-6.0781h1.6094c1.7578 0 2.9688-0.39844 3.625-1.1875 0.65625-0.79297 0.98438-2.3555 0.98438-4.6875zm0-11.297h9.2656v7.5625h-9.2656z"/>
  </symbol>
  <symbol id="l" overflow="visible">
   <path d="m27.109-28.094v7.0469c-1.9805-0.83203-3.8984-1.4531-5.75-1.8594-1.8438-0.41406-3.5898-0.625-5.2344-0.625-1.7617 0-3.0703 0.21875-3.9219 0.65625-0.85547 0.4375-1.2812 1.1172-1.2812 2.0312 0 0.74219 0.32031 1.3086 0.96875 1.7031 0.65625 0.39844 1.8164 0.69531 3.4844 0.89062l1.6406 0.23438c4.75 0.60547 7.9414 1.6016 9.5781 2.9844 1.6328 1.375 2.4531 3.5391 2.4531 6.4844 0 3.0938-1.1406 5.418-3.4219 6.9688-2.2734 1.5547-5.668 2.3281-10.188 2.3281-1.918 0-3.9023-0.15234-5.9531-0.45312-2.043-0.30078-4.1406-0.75391-6.2969-1.3594v-7.0469c1.8438 0.89844 3.7344 1.5742 5.6719 2.0312 1.9453 0.44922 3.9219 0.67188 5.9219 0.67188 1.8125 0 3.1758-0.25 4.0938-0.75 0.91406-0.5 1.375-1.2422 1.375-2.2344 0-0.82031-0.32031-1.4375-0.95312-1.8438-0.625-0.40625-1.8828-0.72266-3.7656-0.95312l-1.625-0.20312c-4.125-0.51953-7.0156-1.4766-8.6719-2.875-1.6562-1.3945-2.4844-3.5195-2.4844-6.375 0-3.0703 1.0508-5.3477 3.1562-6.8281 2.1016-1.4883 5.332-2.2344 9.6875-2.2344 1.707 0 3.5 0.13281 5.375 0.39062 1.8828 0.26172 3.9297 0.66797 6.1406 1.2188z"/>
  </symbol>
  <symbol id="k" overflow="visible">
   <path d="m4.875-38.656h9.9688v14.109l14.359-14.109h11.578l-18.609 18.297 20.531 20.359h-12.484l-15.375-15.219v15.219h-9.9688z"/>
  </symbol>
  <symbol id="j" overflow="visible">
   <path d="m4.4531-29h9.2656v29h-9.2656zm0-11.297h9.2656v7.5625h-9.2656z"/>
  </symbol>
  <symbol id="i" overflow="visible">
   <path d="m31.328-24.188c1.1758-1.7891 2.5703-3.1562 4.1875-4.0938 1.6133-0.94531 3.3828-1.4219 5.3125-1.4219 3.332 0 5.8672 1.0312 7.6094 3.0938 1.75 2.0547 2.625 5.0391 2.625 8.9531v17.656h-9.3281v-15.125c0.019531-0.21875 0.035156-0.44531 0.046875-0.6875 0.007812-0.25 0.015625-0.59766 0.015625-1.0469 0-2.0508-0.30469-3.5352-0.90625-4.4531-0.60547-0.92578-1.5859-1.3906-2.9375-1.3906-1.7617 0-3.1211 0.72656-4.0781 2.1719-0.94922 1.4492-1.4453 3.5469-1.4844 6.2969v14.234h-9.3125v-15.125c0-3.207-0.27734-5.2695-0.82812-6.1875-0.55469-0.92578-1.5391-1.3906-2.9531-1.3906-1.7812 0-3.1562 0.73047-4.125 2.1875-0.96875 1.4609-1.4531 3.543-1.4531 6.25v14.266h-9.3125v-29h9.3125v4.25c1.1445-1.6445 2.4531-2.8789 3.9219-3.7031 1.4766-0.83203 3.1094-1.25 4.8906-1.25 2 0 3.7656 0.48438 5.2969 1.4531 1.5391 0.96875 2.707 2.3242 3.5 4.0625z"/>
  </symbol>
 </defs>
 <g>
  <path d="m78.637 159.09h430.48c105.4 0 190.82 85.461 190.82 190.91s-85.457 190.91-190.93 190.91h-498.4c-5.8555 0-10.605-4.75-10.605-10.605 0-5.8594 4.75-10.609 10.605-10.609h498.4c93.762 0 169.72-75.961 169.72-169.7 0-93.738-75.93-169.7-169.61-169.7h-430.48l109.16 109.16c4.1445 4.1445 4.1445 10.859 0 15-4.1406 4.1406-10.855 4.1406-14.996 0l-127.27-127.27c-4.1406-4.1406-4.1406-10.855 0-14.996l127.27-127.27c4.1406-4.1445 10.855-4.1445 14.996 0 4.1445 4.1406 4.1445 10.855 0 15z"/>
  <use y="700" xlink:href="#o"/>
  <use x="38.917969" y="700" xlink:href="#b"/>
  <use x="65.070312" y="700" xlink:href="#a"/>
  <use x="101.039062" y="700" xlink:href="#h"/>
  <use x="136.824219" y="700" xlink:href="#g"/>
  <use x="162.171875" y="700" xlink:href="#a"/>
  <use x="198.136719" y="700" xlink:href="#c"/>
  <use x="254.5625" y="700" xlink:href="#f"/>
  <use x="292.519531" y="700" xlink:href="#e"/>
  <use x="345.550781" y="700" xlink:href="#d"/>
  <use x="386.59375" y="700" xlink:href="#n"/>
  <use x="424.347656" y="700" xlink:href="#c"/>
  <use x="462.304688" y="700" xlink:href="#b"/>
  <use x="488.457031" y="700" xlink:href="#a"/>
  <use x="524.425781" y="700" xlink:href="#m"/>
  <use x="542.601562" y="700" xlink:href="#l"/>
  <use x="592.628906" y="700" xlink:href="#k"/>
  <use x="633.722656" y="700" xlink:href="#j"/>
  <use x="651.898438" y="700" xlink:href="#b"/>
  <use x="678.050781" y="700" xlink:href="#i"/>
 </g>
</svg>
